HIERARCHY
ROOT Hips
{
    OFFSET   0.000000   0.000000   0.000000
    CHANNELS 6 Xposition Yposition Zposition Zrotation Xrotation Yrotation
    JOINT Chest
    {
        OFFSET   0.000000   8.007230   0.000000
        CHANNELS 3 Zrotation Xrotation Yrotation
        JOINT Chest2
        {
            OFFSET   0.000000  22.077100   0.000000
            CHANNELS 3 Zrotation Xrotation Yrotation
            JOINT Neck
            {
                OFFSET   0.000000  23.255100   0.000000
                CHANNELS 3 Zrotation Xrotation Yrotation
                JOINT Head
                {
                    OFFSET   0.000000  14.370100   1.956600
                    CHANNELS 3 Zrotation Xrotation Yrotation
                    End Site
                    {
                        OFFSET   0.000000  19.566000   0.000000
                    }
                }
            }
            JOINT LeftCollar
            {
                OFFSET   3.911900  19.017000  -0.467063
                CHANNELS 3 Zrotation Xrotation Yrotation
                JOINT LeftShoulder
                {
                    OFFSET  10.383700   0.000000   0.000000
                    CHANNELS 3 Zrotation Xrotation Yrotation
                    JOINT LeftElbow
                    {
                        OFFSET  26.662100   0.001193   0.000980
                        CHANNELS 3 Zrotation Xrotation Yrotation
                        JOINT LeftWrist
                        {
                            OFFSET  28.869000  -0.000059  -0.000082
                            CHANNELS 3 Zrotation Xrotation Yrotation
                            JOINT LeftFinger0
                            {
                                OFFSET   2.044650  -2.323450   3.252850
                                CHANNELS 3 Zrotation Xrotation Yrotation
                                JOINT LeftFinger01
                                {
                                    OFFSET   3.088130   0.000000   0.000000
                                    CHANNELS 3 Zrotation Xrotation Yrotation
                                    JOINT LeftFinger02
                                    {
                                        OFFSET   2.639460   0.000000   0.000000
                                        CHANNELS 3 Zrotation Xrotation Yrotation
                                        End Site
                                        {
                                            OFFSET   2.582190   0.000000   0.000000
                                        }
                                    }
                                }
                            }
                            JOINT LeftFinger1
                            {
                                OFFSET   8.364480   0.000000   3.252850
                                CHANNELS 3 Zrotation Xrotation Yrotation
                                JOINT LeftFinger11
                                {
                                    OFFSET   4.646930   0.000000   0.000000
                                    CHANNELS 3 Zrotation Xrotation Yrotation
                                    JOINT LeftFinger12
                                    {
                                        OFFSET   2.323470   0.000000   0.000000
                                        CHANNELS 3 Zrotation Xrotation Yrotation
                                        End Site
                                        {
                                            OFFSET   2.273050   0.000000   0.000000
                                        }
                                    }
                                }
                            }
                            JOINT LeftFinger2
                            {
                                OFFSET   8.364490   0.000016   1.078090
                                CHANNELS 3 Zrotation Xrotation Yrotation
                                JOINT LeftFinger21
                                {
                                    OFFSET   5.111610   0.000000   0.000000
                                    CHANNELS 3 Zrotation Xrotation Yrotation
                                    JOINT LeftFinger22
                                    {
                                        OFFSET   2.788150   0.000016   0.000000
                                        CHANNELS 3 Zrotation Xrotation Yrotation
                                        End Site
                                        {
                                            OFFSET   2.727660   0.000000   0.000000
                                        }
                                    }
                                }
                            }
                            JOINT LeftFinger3
                            {
                                OFFSET   7.899780   0.000015  -1.078090
                                CHANNELS 3 Zrotation Xrotation Yrotation
                                JOINT LeftFinger31
                                {
                                    OFFSET   4.646930   0.000000   0.000000
                                    CHANNELS 3 Zrotation Xrotation Yrotation
                                    JOINT LeftFinger32
                                    {
                                        OFFSET   2.323470   0.000000   0.000000
                                        CHANNELS 3 Zrotation Xrotation Yrotation
                                        End Site
                                        {
                                            OFFSET   2.273050   0.000000   0.000000
                                        }
                                    }
                                }
                            }
                            JOINT LeftFinger4
                            {
                                OFFSET   7.435090   0.000000  -3.252850
                                CHANNELS 3 Zrotation Xrotation Yrotation
                                JOINT LeftFinger41
                                {
                                    OFFSET   3.717550   0.000000   0.000000
                                    CHANNELS 3 Zrotation Xrotation Yrotation
                                    JOINT LeftFinger42
                                    {
                                        OFFSET   1.858770   0.000000   0.000000
                                        CHANNELS 3 Zrotation Xrotation Yrotation
                                        End Site
                                        {
                                            OFFSET   1.818440   0.000000   0.000000
                                        }
                                    }
                                }
                            }
                        }
                    }
                }
            }
            JOINT RightCollar
            {
                OFFSET  -3.911910  19.017000  -0.467062
                CHANNELS 3 Zrotation Xrotation Yrotation
                JOINT RightShoulder
                {
                    OFFSET -10.383700   0.000014   0.000000
                    CHANNELS 3 Zrotation Xrotation Yrotation
                    JOINT RightElbow
                    {
                        OFFSET -26.662100   0.001225   0.001091
                        CHANNELS 3 Zrotation Xrotation Yrotation
                        JOINT RightWrist
                        {
                            OFFSET -28.869000  -0.000020  -0.000085
                            CHANNELS 3 Zrotation Xrotation Yrotation
                            JOINT RightFinger0
                            {
                                OFFSET  -2.044650  -2.323490   3.252850
                                CHANNELS 3 Zrotation Xrotation Yrotation
                                JOINT RightFinger01
                                {
                                    OFFSET  -3.088130   0.000000   0.000000
                                    CHANNELS 3 Zrotation Xrotation Yrotation
                                    JOINT RightFinger02
                                    {
                                        OFFSET  -2.639460   0.000000   0.000000
                                        CHANNELS 3 Zrotation Xrotation Yrotation
                                        End Site
                                        {
                                            OFFSET  -2.582190   0.000000   0.000000
                                        }
                                    }
                                }
                            }
                            JOINT RightFinger1
                            {
                                OFFSET  -8.364480   0.000000   3.252850
                                CHANNELS 3 Zrotation Xrotation Yrotation
                                JOINT RightFinger11
                                {
                                    OFFSET  -4.646930   0.000000   0.000000
                                    CHANNELS 3 Zrotation Xrotation Yrotation
                                    JOINT RightFinger12
                                    {
                                        OFFSET  -2.323470   0.000000   0.000000
                                        CHANNELS 3 Zrotation Xrotation Yrotation
                                        End Site
                                        {
                                            OFFSET  -2.273050   0.000000   0.000000
                                        }
                                    }
                                }
                            }
                            JOINT RightFinger2
                            {
                                OFFSET  -8.364480   0.000000   1.078090
                                CHANNELS 3 Zrotation Xrotation Yrotation
                                JOINT RightFinger21
                                {
                                    OFFSET  -5.111620   0.000000   0.000000
                                    CHANNELS 3 Zrotation Xrotation Yrotation
                                    JOINT RightFinger22
                                    {
                                        OFFSET  -2.788160   0.000000   0.000000
                                        CHANNELS 3 Zrotation Xrotation Yrotation
                                        End Site
                                        {
                                            OFFSET  -2.727660   0.000000   0.000000
                                        }
                                    }
                                }
                            }
                            JOINT RightFinger3
                            {
                                OFFSET  -7.899780   0.000000  -1.078090
                                CHANNELS 3 Zrotation Xrotation Yrotation
                                JOINT RightFinger31
                                {
                                    OFFSET  -4.646930   0.000000   0.000000
                                    CHANNELS 3 Zrotation Xrotation Yrotation
                                    JOINT RightFinger32
                                    {
                                        OFFSET  -2.323470   0.000000   0.000000
                                        CHANNELS 3 Zrotation Xrotation Yrotation
                                        End Site
                                        {
                                            OFFSET  -2.273050   0.000000   0.000000
                                        }
                                    }
                                }
                            }
                            JOINT RightFinger4
                            {
                                OFFSET  -7.435090   0.000000  -3.252850
                                CHANNELS 3 Zrotation Xrotation Yrotation
                                JOINT RightFinger41
                                {
                                    OFFSET  -3.717550   0.000000   0.000000
                                    CHANNELS 3 Zrotation Xrotation Yrotation
                                    JOINT RightFinger42
                                    {
                                        OFFSET  -1.858760   0.000000   0.000000
                                        CHANNELS 3 Zrotation Xrotation Yrotation
                                        End Site
                                        {
                                            OFFSET  -1.818440   0.000000   0.000000
                                        }
                                    }
                                }
                            }
                        }
                    }
                }
            }
        }
    }
    JOINT LeftHip
    {
        OFFSET   9.783030   0.000000   0.000000
        CHANNELS 3 Zrotation Xrotation Yrotation
        JOINT LeftKnee
        {
            OFFSET   0.000063 -41.789100   0.000608
            CHANNELS 3 Zrotation Xrotation Yrotation
            JOINT LeftAnkle
            {
                OFFSET   0.000048 -41.133200  -0.000184
                CHANNELS 3 Zrotation Xrotation Yrotation
                JOINT LeftToe
                {
                    OFFSET   0.000000  -6.358960  14.674500
                    CHANNELS 3 Zrotation Xrotation Yrotation
                    End Site
                    {
                        OFFSET   0.000000   0.000000   3.913200
                    }
                }
            }
        }
    }
    JOINT RightHip
    {
        OFFSET  -9.783030   0.000000   0.000000
        CHANNELS 3 Zrotation Xrotation Yrotation
        JOINT RightKnee
        {
            OFFSET   0.000071 -41.789100   0.001239
            CHANNELS 3 Zrotation Xrotation Yrotation
            JOINT RightAnkle
            {
                OFFSET   0.000037 -41.133200  -0.000166
                CHANNELS 3 Zrotation Xrotation Yrotation
                JOINT RightToe
                {
                    OFFSET   0.000000  -6.358960  14.674500
                    CHANNELS 3 Zrotation Xrotation Yrotation
                    End Site
                    {
                        OFFSET   0.000000   0.000000   3.913200
                    }
                }
            }
        }
    }
}
MOTION
Frames: 4
Frame Time:   0.016667
  0.253251  89.561400  -0.582940  -2.626260  -7.029590  -4.454800   0.288350   5.107210   0.487464   0.536079  10.216700   0.954734   1.396250   0.049837  -0.000529   2.291960   0.100921   4.364120  -5.016910  -2.284850   3.386210 -73.439400  26.987700  -2.669310  -1.445580  -4.623180 -19.699200  15.297900 -10.376800   3.903580  36.515800  30.690500 -60.427900 -34.473300   0.001132   0.000820 -12.236600   0.004104  -0.002050 -31.093800   5.136850  -8.444440 -25.750900  -0.004804  -0.008441 -18.025600  -0.002543  -0.013219 -28.961400   1.323640  -2.390110 -43.483500  -0.002538   0.005836 -28.960000  -0.005961  -0.004394 -28.665800   1.326100  -2.396810 -39.010800  -0.008169   0.000083 -25.981200  -0.003630  -0.003788 -33.451700   0.576942  -0.885983 -50.184200  -0.001671  -0.003297 -33.422700  -0.003771  -0.005137  11.371000   0.334296  11.701000  65.158500  22.729000  -4.311180  -5.797410   0.298240  20.821000  -7.707770 -10.648300   3.200290 -34.572400  30.689300  66.258700  35.183100   0.000516  -0.001253  12.591500   0.001269  -0.001133  27.988400   8.489030  15.523300  23.847900  -0.006252  -0.012191  16.693500   0.000436  -0.011932  28.138600   5.197300   9.613330  37.072600   0.008740  -0.010926  24.690400   0.004217   0.000000  27.530200   2.344480   4.487450  29.816400   0.004569  -0.003801  19.857700   0.001985  -0.003432  32.063800   0.863163   1.386240  48.111100   0.001605  -0.003009  32.042000  -0.002022  -0.002266   1.816450   9.667400   4.993550   0.430181   0.140725   7.237250  -0.886460  -3.332700   1.488670  -0.000000   0.000000   0.000000   1.764500   8.711130   1.361800   0.007904   1.783260  -8.655560  -0.293647  -4.052430  -0.146017   0.000000   0.000000   0.000000
  0.247230  89.561300  -0.576418  -2.627990  -7.033830  -4.466690   0.288340   5.107510   0.487758   0.536027  10.217300   0.955326   1.396390   0.049822  -0.000588   2.292300   0.100924   4.339470  -5.016630  -2.289590   3.386220 -73.433600  27.016100  -2.679880  -1.439520  -4.642360 -19.681600  15.323800 -10.373500   3.929440  36.514000  30.673300 -60.412500 -34.467200   0.001094   0.000817 -12.233600   0.004097  -0.002068 -31.094700   5.144370  -8.454730 -25.753100  -0.004773  -0.008452 -18.027100  -0.002521  -0.013238 -28.964300   1.331270  -2.403180 -43.488400  -0.002535   0.005837 -28.963200  -0.005964  -0.004367 -28.665500   1.326080  -2.410070 -39.022500  -0.008170   0.000082 -25.989000  -0.003633  -0.003766 -33.459200   0.576926  -0.882552 -50.195400  -0.001672  -0.003274 -33.430200  -0.003770  -0.005120  11.377500   0.323315  11.700700  65.179800  22.747200  -4.315440  -5.786750   0.290682  20.788200  -7.710790 -10.682700   3.249310 -34.567200  30.674300  66.266500  35.176400   0.000528  -0.001159  12.588100   0.001266  -0.001129  28.012800   8.528550  15.575000  23.873900  -0.006257  -0.012195  16.711700   0.000437  -0.011942  28.138300   5.214780   9.645200  37.110800   0.008714  -0.010912  24.715800   0.004213  -0.000000  27.534800   2.354490   4.505630  29.844500   0.004563  -0.003796  19.876500   0.001979  -0.003429  32.074100   0.863164   1.382400  48.126700   0.001606  -0.003011  32.052300  -0.002022  -0.002266   1.817540   9.655070   4.992100   0.430787   0.190859   7.245790  -0.893543  -3.365230   1.493700  -0.000000   0.000000  -0.000000   1.764490   8.721250   1.361920   0.010281   1.779440  -8.628180  -0.300402  -4.052050  -0.161685  -0.000000   0.000000  -0.000000
  0.237220  89.561200  -0.565138  -2.631280  -7.042020  -4.489160   0.288262   5.109590   0.489485   0.535698  10.221400   0.958804   1.396600   0.049718  -0.000669   2.292670   0.100927   4.300160  -5.015910  -2.302040   3.386240 -73.427600  27.047100  -2.690520  -1.429540  -4.674850 -19.655800  15.358500 -10.370000   3.970270  36.498800  30.640900 -60.396500 -34.461200   0.001009   0.000794 -12.230600   0.004076  -0.002115 -31.113100   5.153570  -8.465040 -25.768400  -0.004701  -0.008482 -18.037900  -0.002473  -0.013288 -28.974800   1.338900  -2.416260 -43.504600  -0.002532   0.005840 -28.974000  -0.005969  -0.004297 -28.665400   1.326070  -2.423340 -39.045700  -0.008173   0.000081 -26.004400  -0.003636  -0.003709 -33.472300   0.576900  -0.876962 -50.215100  -0.001673  -0.003219 -33.443300  -0.003768  -0.005078  11.390100   0.296107  11.698300  65.226300  22.794400  -4.328020  -5.769440   0.271489  20.755400  -7.726200 -10.744400   3.339410 -34.554100  30.659200  66.274300  35.169700   0.000548  -0.000991  12.584800   0.001263  -0.001122  28.041800   8.568060  15.626700  23.907100  -0.006262  -0.012213  16.734900   0.000441  -0.011965  28.139100   5.235510   9.682280  37.165200   0.008657  -0.010877  24.752000   0.004209   0.000000  27.541800   2.370710   4.535190  29.887300   0.004540  -0.003784  19.905000   0.001964  -0.003420  32.091000   0.863161   1.376170  48.152000   0.001607  -0.003013  32.069200  -0.002026  -0.002267   1.819040   9.642770   4.988210   0.431344   0.240988   7.262420  -0.903327  -3.397760   1.503730   0.000000   0.000000  -0.000000   1.764260   8.739880   1.362150   0.016891   1.772040  -8.585830  -0.311012  -4.051660  -0.177353   0.000000   0.000000   0.000000
  0.229335  89.561100  -0.555444  -2.634690  -7.050210  -4.512470   0.288038   5.115810   0.493735   0.534813  10.233900   0.967361   1.396690   0.045776  -0.000696   2.293200   0.092872   4.272010  -5.017890  -2.323730   3.379040 -73.430200  27.050400  -2.684500  -1.419870  -4.704430 -19.640800  15.372800 -10.394000   4.000170  36.446400  30.589500 -60.420000 -34.489200   0.000888   0.000640 -12.244600   0.004041  -0.002194 -31.171900   5.155680  -8.453310 -25.815400  -0.004597  -0.008533 -18.070900  -0.002409  -0.013368 -29.002000   1.331030  -2.400060 -43.544400  -0.002535   0.005846 -29.000600  -0.005972  -0.004185 -28.666300   1.317480  -2.407490 -39.079800  -0.008174   0.000078 -26.027200  -0.003634  -0.003618 -33.487300   0.576881  -0.871750 -50.237600  -0.001673  -0.003142 -33.458300  -0.003771  -0.005020  11.405100   0.256260  11.691200  65.287700  22.863300  -4.356180  -5.755960   0.239822  20.758600  -7.752700 -10.819900   3.428410 -34.547600  30.661600  66.275400  35.195300   0.000566  -0.000787  12.597600   0.001269  -0.001115  28.052700   8.559770  15.606800  23.915600  -0.006250  -0.012254  16.740900   0.000450  -0.011997  28.140500   5.237670   9.685750  37.192000   0.008577  -0.010827  24.769900   0.004209  -0.000007  27.546000   2.377890   4.548070  29.912500   0.004496  -0.003770  19.921700   0.001940  -0.003407  32.103000   0.860503   1.371810  48.169900   0.001608  -0.003005  32.081100  -0.002035  -0.002264   1.817990   9.681730   4.982120   0.432554   0.189231   7.280470  -0.906233  -3.375970   1.515730  -0.000000   0.000000   0.000000   1.761690   8.757920   1.362400   0.027797   1.763860  -8.559390  -0.318536  -4.053460  -0.177281  -0.000000   0.000000  -0.000000
